<svg id="Layer_1" data-name="Layer 1" xmlns="http://www.w3.org/2000/svg" xmlns:xlink="http://www.w3.org/1999/xlink" viewBox="0 0 686.69 126.47"><defs><style>.cls-1{fill:#85459a;}.cls-2{fill:url(#linear-gradient);}.cls-3{fill:url(#linear-gradient-2);}.cls-4{fill:url(#linear-gradient-3);}</style><linearGradient id="linear-gradient" x1="9702.28" y1="693.96" x2="9850.89" y2="693.96" gradientTransform="translate(9919.04 755.94) rotate(180)" gradientUnits="userSpaceOnUse"><stop offset="0" stop-color="#874d9f"/><stop offset="1" stop-color="#e9ab2a"/></linearGradient><linearGradient id="linear-gradient-2" x1="9468.38" y1="667.6" x2="9560.38" y2="667.6" gradientTransform="translate(9608.51 745.07) rotate(180)" xlink:href="#linear-gradient"/><linearGradient id="linear-gradient-3" x1="-0.05" y1="65.04" x2="140.08" y2="65.04" gradientTransform="translate(0.05 -0.55)" xlink:href="#linear-gradient"/></defs><title>NKOTB_Master Brand_FA</title><path class="cls-1" d="M313.72,37.13l-.21,48.36-13.43-.06L284.34,58.9h-.17l-.11,26.46-12.86-.05.21-48.36,13,.06,16,27.32h.17l.12-27.26Z"/><path class="cls-1" d="M352.55,72l-21.87-.09a5.08,5.08,0,0,0,2.26,3.57,8.28,8.28,0,0,0,4.63,1.25A10.49,10.49,0,0,0,345.26,73L351.52,80a16.35,16.35,0,0,1-6.25,4.58,21.87,21.87,0,0,1-9,1.74,18.34,18.34,0,0,1-8.93-2.21,15.83,15.83,0,0,1-6.24-6.19,19.14,19.14,0,0,1,0-18,15.82,15.82,0,0,1,6.19-6.16,17.84,17.84,0,0,1,8.92-2.19,17.46,17.46,0,0,1,6.68,1.31,15.46,15.46,0,0,1,8.79,9,18.42,18.42,0,0,1,1.25,6.9A13.48,13.48,0,0,1,352.55,72ZM332.6,62a5.34,5.34,0,0,0-1.86,3.27l10.37,0a7.26,7.26,0,0,0-.67-1.86A5.35,5.35,0,0,0,339.36,62a4.22,4.22,0,0,0-1.48-.89,5.39,5.39,0,0,0-1.81-.31A5.31,5.31,0,0,0,332.6,62Z"/><path class="cls-1" d="M404.28,52.54,392.94,85.83l-9.44,0L378.63,67h-.07l-4.83,18.76-9.64,0L353,52.32l12,.05,4.62,16h.07l4.29-16,9.24,0,4.22,16h.07l4.79-16Z"/><path class="cls-1" d="M423.08,68.57l-2.77,3.35-.06,14-12.86-.05.21-48.36,12.86.06-.07,16.29h.13l11.84-16.24,16.35.07L431.6,58.3l17.6,27.76L433.31,86l-10.2-17.43Z"/><path class="cls-1" d="M453.05,47.08a6.4,6.4,0,0,1,1.46-10.31,7.51,7.51,0,0,1,3.61-.85,7,7,0,0,1,5,1.87,6.1,6.1,0,0,1,1.94,4.64,6.23,6.23,0,0,1-2,4.71,7.67,7.67,0,0,1-10-.06ZM452,52.74l12.13.05L464,86.13l-12.13-.05Z"/><path class="cls-1" d="M504.48,36.18l-.21,50.12-11.53,0V83.13h-.13q-3.11,3.81-8.86,3.78a15.22,15.22,0,0,1-6.26-1.31A14.34,14.34,0,0,1,472.61,82a16.21,16.21,0,0,1-3.15-5.51,21,21,0,0,1-1.12-7.07,21.25,21.25,0,0,1,1.16-7,16.49,16.49,0,0,1,3.13-5.5,14.22,14.22,0,0,1,4.72-3.52,13.53,13.53,0,0,1,5.82-1.25,11.43,11.43,0,0,1,8.92,4.06h.1l.09-20.11ZM490.93,74.46a7.65,7.65,0,0,0,0-9.69,5.76,5.76,0,0,0-4.41-1.88,5.44,5.44,0,0,0-4.26,1.84,7.89,7.89,0,0,0,0,9.69,5.46,5.46,0,0,0,4.24,1.86A5.79,5.79,0,0,0,490.93,74.46Z"/><path class="cls-1" d="M507.78,82l5.55-7.49q4.34,3.81,8.33,3.83,2.46,0,2.46-1.35a1.18,1.18,0,0,0-.26-.78,4.09,4.09,0,0,0-1.28-.79,22,22,0,0,0-3-1,32.65,32.65,0,0,1-3.27-1.16,16.75,16.75,0,0,1-2.87-1.56,10.94,10.94,0,0,1-2.33-2.07,8.84,8.84,0,0,1-1.5-2.7,10,10,0,0,1-.55-3.43,11.21,11.21,0,0,1,1-4.82,9.6,9.6,0,0,1,2.79-3.53A12.76,12.76,0,0,1,517,53.05a16.27,16.27,0,0,1,4.94-.71,23.1,23.1,0,0,1,4.93.52,19.67,19.67,0,0,1,4.15,1.4,25.93,25.93,0,0,1,3.93,2.36l-5.65,8.05a12.78,12.78,0,0,0-3.48-2.53,8.16,8.16,0,0,0-3.52-.93,2.94,2.94,0,0,0-1.48.34,1.1,1.1,0,0,0-.62,1q0,.53.86,1.05a18,18,0,0,0,3.25,1.29q2.46.81,4.1,1.5a20,20,0,0,1,3.1,1.62,8.67,8.67,0,0,1,2.28,2,8.31,8.31,0,0,1,1.29,2.6,11.54,11.54,0,0,1,.45,3.43,11.06,11.06,0,0,1-.9,4.47A9.71,9.71,0,0,1,532,84a11.72,11.72,0,0,1-4.43,2.26,21.88,21.88,0,0,1-6.17.77A19.81,19.81,0,0,1,507.78,82Z"/><path class="cls-1" d="M541.39,85.25a6.26,6.26,0,0,1-1.92-4.64,6.16,6.16,0,0,1,2-4.56,6.68,6.68,0,0,1,9.36,0,6.18,6.18,0,0,1,1.92,4.58,6.26,6.26,0,0,1-2,4.63,6.7,6.7,0,0,1-9.37,0Z"/><path class="cls-1" d="M564.14,86.57a8.78,8.78,0,0,1-3.15-2A9.2,9.2,0,0,1,558.9,81a14.81,14.81,0,0,1-.74-5l.06-13.23-3.62,0,0-9.64,3.62,0,0-10.47,12.14-1.21,0,11.73,7.25,0,0,9.64-7.25,0,0,10.6a9.29,9.29,0,0,0,.06,1.21,4.69,4.69,0,0,0,.26,1,1.62,1.62,0,0,0,.68.83,2.2,2.2,0,0,0,1.18.3,5.82,5.82,0,0,0,2.46-.52l2.92,8.49a19.87,19.87,0,0,1-4.3,1.83,20.15,20.15,0,0,1-5.45.59A11.21,11.21,0,0,1,564.14,86.57Z"/><path class="cls-1" d="M613.87,73.08,592,73a5.08,5.08,0,0,0,2.26,3.57,8.28,8.28,0,0,0,4.63,1.25,10.5,10.5,0,0,0,7.69-3.66l6.25,6.94a16.34,16.34,0,0,1-6.25,4.58,21.88,21.88,0,0,1-9,1.74,18.36,18.36,0,0,1-8.93-2.21A15.83,15.83,0,0,1,582.39,79a19.14,19.14,0,0,1,0-18,15.82,15.82,0,0,1,6.19-6.16,17.84,17.84,0,0,1,8.92-2.19A17.44,17.44,0,0,1,604.18,54,15.45,15.45,0,0,1,613,63a18.42,18.42,0,0,1,1.25,6.9A13.44,13.44,0,0,1,613.87,73.08Zm-19.95-10a5.34,5.34,0,0,0-1.86,3.27l10.37,0a7.21,7.21,0,0,0-.67-1.86,5.33,5.33,0,0,0-1.07-1.42,4.21,4.21,0,0,0-1.47-.89,5.39,5.39,0,0,0-1.81-.31A5.32,5.32,0,0,0,593.92,63.1Z"/><path class="cls-1" d="M625.19,85.34a15.84,15.84,0,0,1-6.24-6.18,17.81,17.81,0,0,1-2.24-9,17.59,17.59,0,0,1,2.35-9A15.91,15.91,0,0,1,625.57,55a20.08,20.08,0,0,1,9.5-2.15,19.54,19.54,0,0,1,8.19,1.81,16,16,0,0,1,6.34,5.13l-8.1,6.85a7.8,7.8,0,0,0-6.17-3,6.08,6.08,0,0,0-4.61,1.81,6.52,6.52,0,0,0-1.77,4.68,6.58,6.58,0,0,0,1.79,4.79,6.24,6.24,0,0,0,4.66,1.88,7.61,7.61,0,0,0,6-2.7l8.24,7.25a16.32,16.32,0,0,1-6.32,4.54,22.91,22.91,0,0,1-9.23,1.71A18.35,18.35,0,0,1,625.19,85.34Z"/><path class="cls-1" d="M678.16,53.29a12.14,12.14,0,0,1,2.84.93,8,8,0,0,1,2.39,1.71,10.45,10.45,0,0,1,1.78,2.58,13.6,13.6,0,0,1,1.15,3.63,25.73,25.73,0,0,1,.38,4.77l-.09,20.17L674.44,87l.07-17.25a11.11,11.11,0,0,0-.47-3.67,3.17,3.17,0,0,0-1.47-1.83,6,6,0,0,0-2.72-.53,4.32,4.32,0,0,0-3.56,1.6,7.74,7.74,0,0,0-1.32,4.9L664.9,87l-12.16-.05L653,36.82l12.16.05L665,57.34h.1A12.52,12.52,0,0,1,668,54.91a12.38,12.38,0,0,1,3.31-1.45,13.62,13.62,0,0,1,3.64-.47A17.28,17.28,0,0,1,678.16,53.29Z"/><path class="cls-2" d="M177.48,124a39.17,39.17,0,0,1-27.79-11.49l-64-64a2,2,0,0,0-1.41-.59H68.14L104.63,11.4a39,39,0,0,1,55.15,0L205.27,56.9A39.28,39.28,0,0,1,177.48,124ZM92.41,39.47a13.48,13.48,0,0,1,1.23,1.09l64,64a28.09,28.09,0,1,0,39.72-39.72L151.85,19.33a27.82,27.82,0,0,0-39.3,0Z"/><path class="cls-3" d="M87.41,123.47A39.17,39.17,0,0,1,59.63,112h0a39.34,39.34,0,0,1,0-55.57L84.56,31.48,140.13,87,115.2,112A39.18,39.18,0,0,1,87.41,123.47ZM67.55,104.06a28.12,28.12,0,0,0,39.72,0l17-17L84.56,47.33l-17,17a28.12,28.12,0,0,0,0,39.72Z"/><path class="cls-4" d="M84.56,126.47A38.74,38.74,0,0,1,57,115L11.49,69.56A39.3,39.3,0,0,1,67.06,14L140.13,87l-28,28A38.74,38.74,0,0,1,84.56,126.47ZM39.28,13.7A28.07,28.07,0,0,0,19.42,61.63l45.49,45.49a27.79,27.79,0,0,0,39.3,0L124.28,87,59.14,21.91A28,28,0,0,0,39.28,13.7Z"/></svg>