<?xml version="1.0" encoding="utf-8"?>
<!-- Generator: Adobe Illustrator 21.1.0, SVG Export Plug-In . SVG Version: 6.00 Build 0)  -->
<svg version="1.1" id="Layer_1" xmlns="http://www.w3.org/2000/svg" xmlns:xlink="http://www.w3.org/1999/xlink" x="0px" y="0px"
	 viewBox="0 0 686.7 126.5" style="enable-background:new 0 0 686.7 126.5;" xml:space="preserve">
<style type="text/css">
	.st0{fill:#9933CC;}
	.st1{fill:url(#SVGID_1_);}
	.st2{fill:url(#SVGID_2_);}
	.st3{fill:url(#SVGID_3_);}
</style>
<g>
	<g>
		<path class="st0" d="M313.7,37.2l-0.2,48.4l-13.4-0.1l-15.7-26.6h-0.2l-0.1,26.5l-12.9-0.1l0.2-48.4l13,0.1l16,27.3h0.2l0.1-27.3
			L313.7,37.2z"/>
		<path class="st0" d="M352.6,72l-21.9-0.1c0.3,1.6,1,2.7,2.3,3.6c1.2,0.8,2.8,1.2,4.6,1.3c2.8,0,5.3-1.2,7.7-3.7l6.3,6.9
			c-1.5,1.9-3.6,3.4-6.3,4.6c-2.7,1.2-5.7,1.8-9,1.7c-3.3,0-6.3-0.8-8.9-2.2c-2.7-1.5-4.7-3.5-6.2-6.2s-2.3-5.7-2.2-9.1
			c0-3.3,0.8-6.3,2.2-8.9c1.5-2.6,3.5-4.7,6.2-6.2c2.6-1.5,5.6-2.2,8.9-2.2c2.4,0,4.6,0.4,6.7,1.3c2.1,0.9,3.9,2,5.3,3.5
			c1.5,1.5,2.6,3.3,3.5,5.4c0.8,2.1,1.3,4.4,1.3,6.9C352.9,70,352.8,71.1,352.6,72z M332.6,62c-1,0.8-1.6,1.9-1.9,3.3h10.4
			c-0.2-0.7-0.4-1.3-0.7-1.9c-0.3-0.6-0.7-1-1.1-1.4s-0.9-0.7-1.5-0.9s-1.2-0.3-1.8-0.3C334.7,60.8,333.6,61.2,332.6,62z"/>
		<path class="st0" d="M404.3,52.6l-11.4,33.3h-9.4l-4.9-18.8h-0.1l-4.8,18.8h-9.6L353,52.5l12,0.1l4.6,16h0.1l4.3-16h9.2l4.2,16
			h0.1l4.8-16L404.3,52.6z"/>
		<path class="st0" d="M423.1,68.6l-2.8,3.3l-0.1,14l-12.9-0.1l0.2-48.4l12.9,0.1l-0.1,16.3h0.1l11.8-16.2l16.4,0.1l-17.1,20.6
			l17.6,27.8L433.2,86L423.1,68.6L423.1,68.6z"/>
		<path class="st0" d="M453.1,47.1c-1.3-1.3-1.9-2.8-1.9-4.7c0-1.2,0.3-2.3,0.9-3.3c0.6-1,1.4-1.8,2.5-2.3c1.1-0.6,2.3-0.9,3.6-0.8
			c2,0,3.7,0.6,5,1.9c1.3,1.2,1.9,2.8,1.9,4.6c0,1.9-0.7,3.5-2,4.7s-3,1.8-5,1.8C456,49,454.4,48.4,453.1,47.1z M452,52.8l12.1,0.1
			L464,86.2l-12.1-0.1L452,52.8z"/>
		<path class="st0" d="M504.5,36.2l-0.2,50.1h-11.5v-3.1h-0.1c-2.1,2.5-5,3.8-8.9,3.8c-2.3,0-4.3-0.4-6.3-1.3
			c-1.9-0.9-3.5-2-4.9-3.6c-1.3-1.5-2.4-3.4-3.1-5.5c-0.8-2.2-1.1-4.5-1.1-7.1c0-2.5,0.4-4.8,1.2-7c0.8-2.2,1.8-4,3.1-5.5
			s2.9-2.7,4.7-3.5s3.8-1.3,5.8-1.3c3.6,0,6.6,1.4,8.9,4.1h0.1l0.1-20.1L504.5,36.2z M490.9,74.5c1.2-1.2,1.7-2.8,1.7-4.9
			c0-2-0.6-3.6-1.7-4.8c-1.1-1.2-2.6-1.9-4.4-1.9c-1.7,0-3.1,0.6-4.3,1.8c-1.1,1.2-1.7,2.8-1.7,4.8s0.5,3.6,1.6,4.9
			c1.1,1.2,2.5,1.9,4.2,1.9C488.3,76.3,489.8,75.7,490.9,74.5z"/>
		<path class="st0" d="M507.8,82.1l5.5-7.5c2.9,2.5,5.7,3.8,8.3,3.8c1.6,0,2.5-0.4,2.5-1.4c0-0.3-0.1-0.6-0.3-0.8s-0.6-0.5-1.3-0.8
			s-1.7-0.7-3-1c-1.2-0.4-2.3-0.7-3.3-1.2c-1-0.4-1.9-0.9-2.9-1.6c-0.9-0.6-1.7-1.3-2.3-2.1s-1.1-1.7-1.5-2.7s-0.6-2.2-0.6-3.4
			c0-1.8,0.4-3.4,1-4.8c0.7-1.4,1.6-2.6,2.8-3.5c1.2-0.9,2.5-1.6,4.1-2.1c1.5-0.5,3.2-0.7,4.9-0.7c1.8,0,3.4,0.2,4.9,0.5
			s2.9,0.8,4.1,1.4c1.2,0.6,2.6,1.4,3.9,2.4l-5.7,8.1c-1.1-1.1-2.2-1.9-3.5-2.5s-2.4-0.9-3.5-0.9c-0.6,0-1.1,0.1-1.5,0.3
			s-0.6,0.6-0.6,1s0.3,0.7,0.9,1.1c0.6,0.3,1.7,0.8,3.3,1.3s3,1,4.1,1.5s2.1,1,3.1,1.6s1.7,1.3,2.3,2s1,1.6,1.3,2.6s0.5,2.1,0.5,3.4
			c0,1.6-0.3,3.1-0.9,4.5c-0.6,1.3-1.5,2.5-2.6,3.5s-2.6,1.7-4.4,2.3c-1.8,0.5-3.9,0.8-6.2,0.8C516.1,87.1,511.5,85.4,507.8,82.1z"
			/>
		<path class="st0" d="M541.4,85.3c-1.3-1.3-1.9-2.8-1.9-4.6s0.7-3.3,2-4.6s2.9-1.9,4.7-1.9s3.4,0.7,4.7,1.9s1.9,2.8,1.9,4.6
			s-0.7,3.4-2,4.6c-1.3,1.3-2.9,1.9-4.7,1.9C544.3,87.2,542.7,86.6,541.4,85.3z"/>
		<path class="st0" d="M564.2,86.6c-1.2-0.5-2.3-1.1-3.1-2c-0.9-0.9-1.6-2.1-2.1-3.5s-0.8-3.1-0.7-5l0.1-13.2h-3.6v-9.6h3.6V42.8
			l12.1-1.2v11.7h7.2v9.6h-7.2v10.6c0,0.5,0,0.9,0.1,1.2c0,0.3,0.1,0.7,0.3,1c0.1,0.4,0.4,0.6,0.7,0.8s0.7,0.3,1.2,0.3
			c0.9,0,1.7-0.2,2.5-0.5l2.9,8.5c-1.4,0.8-2.9,1.4-4.3,1.8c-1.4,0.4-3.2,0.6-5.5,0.6C566.7,87.3,565.4,87.1,564.2,86.6z"/>
		<path class="st0" d="M613.9,73.1L592,73c0.3,1.6,1,2.7,2.3,3.6c1.2,0.8,2.8,1.2,4.6,1.2c2.8,0,5.3-1.2,7.7-3.7l6.3,6.9
			c-1.5,1.9-3.6,3.4-6.3,4.6c-2.7,1.2-5.7,1.8-9,1.7c-3.3,0-6.3-0.8-8.9-2.2c-2.7-1.5-4.7-3.5-6.2-6.2s-2.3-5.7-2.2-9.1
			c0-3.3,0.8-6.3,2.2-8.9c1.5-2.6,3.5-4.7,6.2-6.2c2.6-1.5,5.6-2.2,8.9-2.2c2.4,0,4.6,0.4,6.7,1.3c2.1,0.9,3.9,2,5.3,3.5
			c1.5,1.5,2.6,3.3,3.5,5.4c0.8,2.1,1.3,4.4,1.3,6.9C614.2,71.1,614.1,72.2,613.9,73.1z M593.9,63.1c-1,0.8-1.6,1.9-1.9,3.3h10.4
			c-0.2-0.7-0.4-1.3-0.7-1.9c-0.3-0.6-0.7-1-1.1-1.4c-0.4-0.4-0.9-0.7-1.5-0.9s-1.2-0.3-1.8-0.3C596.1,62,594.9,62.3,593.9,63.1z"/>
		<path class="st0" d="M625.2,85.4c-2.7-1.5-4.7-3.5-6.2-6.2s-2.3-5.7-2.2-9c0-3.4,0.8-6.4,2.3-9c1.6-2.6,3.7-4.7,6.5-6.1
			c2.8-1.5,6-2.2,9.5-2.2c2.9,0,5.6,0.6,8.2,1.8c2.6,1.2,4.7,2.9,6.3,5.1l-8.1,6.8c-1.7-2-3.7-3-6.2-3c-1.9,0-3.4,0.6-4.6,1.8
			c-1.2,1.2-1.8,2.8-1.8,4.7c0,2,0.6,3.5,1.8,4.8c1.2,1.2,2.8,1.9,4.7,1.9c2.4,0,4.4-0.9,6-2.7l8.2,7.2c-1.5,1.9-3.6,3.4-6.3,4.5
			c-2.7,1.2-5.8,1.7-9.2,1.7C630.8,87.6,627.8,86.8,625.2,85.4z"/>
		<path class="st0" d="M678.2,53.3c1,0.2,1.9,0.5,2.8,0.9c0.9,0.4,1.7,1,2.4,1.7s1.3,1.6,1.8,2.6s0.9,2.2,1.1,3.6
			c0.3,1.4,0.4,3,0.4,4.8l-0.1,20.2L674.4,87l0.1-17.3c0-1.6-0.1-2.8-0.5-3.7c-0.3-0.9-0.8-1.5-1.5-1.8c-0.7-0.3-1.6-0.5-2.7-0.5
			c-1.5,0-2.7,0.5-3.6,1.6s-1.3,2.7-1.3,4.9L664.8,87l-12.2-0.1l0.2-50.1l12.2,0.1l-0.1,20.5h0.1c0.8-1,1.8-1.8,2.8-2.4
			c1-0.6,2.1-1.1,3.3-1.4c1.2-0.3,2.4-0.5,3.6-0.5C676.1,53,677.2,53.1,678.2,53.3z"/>
	</g>
	<g>
		<g>
			
				<linearGradient id="SVGID_1_" gradientUnits="userSpaceOnUse" x1="9238.668" y1="-184.2117" x2="9387.3428" y2="-184.2117" gradientTransform="matrix(-1 0 0 1 9455.418 246.2117)">
				<stop  offset="0" style="stop-color:#9933CC"/>
				<stop  offset="1" style="stop-color:#E9AB2A"/>
			</linearGradient>
			<path class="st1" d="M177.5,124c-10.1,0-20.1-3.8-27.8-11.5l-64-64c-0.4-0.4-0.9-0.6-1.4-0.6H68.1l36.5-36.5
				c15.2-15.2,39.9-15.2,55.1,0l45.6,45.5c15.3,15.3,15.3,40.3,0,55.6C197.6,120.2,187.6,124,177.5,124z M92.4,39.5
				c0.4,0.3,0.8,0.7,1.2,1.1l64,64c11,11,28.8,11,39.7,0c11-11,11-28.8,0-39.7l-45.5-45.5c-10.8-10.8-28.5-10.8-39.3,0L92.4,39.5z"
				/>
		</g>
		<g>
			
				<linearGradient id="SVGID_2_" gradientUnits="userSpaceOnUse" x1="9004.8174" y1="-157.8412" x2="9096.793" y2="-157.8412" gradientTransform="matrix(-1 0 0 1 9144.8926 235.3412)">
				<stop  offset="0" style="stop-color:#874D9F"/>
				<stop  offset="1" style="stop-color:#E9AB2A"/>
			</linearGradient>
			<path class="st2" d="M87.4,123.5c-10.1,0-20.1-3.8-27.8-11.5l0,0c-15.3-15.3-15.3-40.3,0-55.6l24.9-24.9l55.6,55.6L115.2,112
				C107.5,119.7,97.5,123.5,87.4,123.5z M67.6,104.1c11,11,28.8,11,39.7,0l17-17L84.6,47.4l-17,17C56.6,75.3,56.6,93.1,67.6,104.1
				L67.6,104.1z"/>
		</g>
		<g>
			
				<linearGradient id="SVGID_3_" gradientUnits="userSpaceOnUse" x1="-5.161129e-02" y1="62.7325" x2="140.1234" y2="62.7325" gradientTransform="matrix(1 0 0 -1 5.161129e-02 127.245)">
				<stop  offset="0" style="stop-color:#9933CC"/>
				<stop  offset="1" style="stop-color:#E9AB2A"/>
			</linearGradient>
			<path class="st3" d="M84.6,126.5c-10.4,0-20.2-4.1-27.6-11.4L11.5,69.6C-3.8,54.3-3.8,29.3,11.5,14s40.3-15.3,55.6,0l73.1,73.1
				l-28,28C104.8,122.4,95,126.5,84.6,126.5z M39.3,13.7c-7.2,0-14.4,2.7-19.9,8.2c-11,11-11,28.8,0,39.7l45.5,45.5
				c5.2,5.2,12.2,8.1,19.6,8.1c7.4,0,14.4-2.9,19.6-8.1L124.2,87L59.1,21.9C53.7,16.5,46.5,13.7,39.3,13.7z"/>
		</g>
	</g>
</g>
</svg>
